<svg xmlns="http://www.w3.org/2000/svg" viewBox="0 0 24 24" role="img" aria-label="AWS S3">
  <path fill="#E25444" d="M3 6.6 12 4l9 2.6v10.8L12 20l-9-2.6V6.6z"/>
  <path fill="#8C3123" d="M12 4v16l-9-2.6V6.6L12 4z"/>
  <path fill="#FFFFFF" d="M13.8 14.1c0-.5-.3-.8-1-.9l-1.7-.3c-.9-.2-1.3-.5-1.3-1.2 0-.9.9-1.5 2.2-1.5 1.1 0 1.8.4 2.1 1l-.8.4c-.2-.5-.7-.7-1.3-.7-.7 0-1.2.3-1.2.7 0 .4.2.5.9.6l1.7.3c1 .2 1.4.6 1.4 1.4 0 1-.9 1.6-2.3 1.6-1.2 0-2.1-.4-2.4-1.2l.9-.4c.2.5.8.8 1.5.8.8 0 1.3-.3 1.3-.6z"/>
</svg>
