<svg xmlns="http://www.w3.org/2000/svg" viewBox="0 0 24 24" role="img" aria-label="Discord">
  <rect width="24" height="24" rx="5" fill="#5865F2"/>
  <path fill="#FFFFFF" d="M18.9 6.8c-1.2-.5-2.4-.9-3.7-1.1l-.2.3c-1.4-.2-2.8-.2-4.2 0l-.2-.3c-1.3.2-2.6.6-3.7 1.1-2.4 3.5-3 6.9-2.7 10.2 1.6 1.1 3 1.8 4.5 2.2l.5-.6c-.6-.2-1.1-.5-1.6-.8l.1-.1c2.9 1.3 6.1 1.3 9 0l.1.1c-.5.3-1 .6-1.6.8l.5.6c1.5-.5 3-1.2 4.5-2.3.3-3.7-.5-7.1-2.7-10.1zM9.4 15c-.9 0-1.6-.8-1.6-1.8s.7-1.8 1.6-1.8 1.6.8 1.6 1.8-.7 1.8-1.6 1.8zm5.2 0c-.9 0-1.6-.8-1.6-1.8s.7-1.8 1.6-1.8 1.6.8 1.6 1.8-.7 1.8-1.6 1.8z"/>
</svg>
