<svg xmlns="http://www.w3.org/2000/svg" viewBox="0 0 24 24" role="img" aria-label="Gmail">
  <path fill="#4285F4" d="M1.5 18.75V8.25L12 15l10.5-6.75v10.5A1.5 1.5 0 0 1 21 20.25h-2.25V11.4l-6.75 4.35-6.75-4.35v8.85H3A1.5 1.5 0 0 1 1.5 18.75z"/>
  <path fill="#34A853" d="M3 20.25h3V11.4l-4.5-2.9v10.25A1.5 1.5 0 0 0 3 20.25z"/>
  <path fill="#FBBC04" d="M18 20.25h3a1.5 1.5 0 0 0 1.5-1.5V8.5L18 11.4v8.85z"/>
  <path fill="#EA4335" d="M1.5 8.25 12 15l10.5-6.75V5.25A1.5 1.5 0 0 0 21 3.75h-1.3L12 9 4.3 3.75H3A1.5 1.5 0 0 0 1.5 5.25v3z"/>
  <path fill="#C5221F" d="M1.5 5.25v3L6 11.15V4.1L4.3 3.75H3a1.5 1.5 0 0 0-1.5 1.5z"/>
</svg>
