<svg xmlns="http://www.w3.org/2000/svg" viewBox="0 0 24 24" role="img" aria-label="Google Drive">
  <path fill="#0066DA" d="M4.3 18.6 2 14.6c-.2-.3-.2-.7 0-1l5-8.7c.2-.3.5-.5.8-.5h4.5L6.5 15.4l-2.2 3.2z"/>
  <path fill="#00AC47" d="M12.3 4.4H7.8c-.4 0-.7.2-.8.5l-5 8.7c-.2.3-.2.7 0 1l2.3 4 5.8-10 2.2-4.2z"/>
  <path fill="#EA4335" d="m15.7 15.4-3.4-5.9-3.7 6.4 3.4 5.8c.2.3.5.5.8.5h5.6c.4 0 .7-.2.8-.5l.7-1.2-4.2-5.1z"/>
  <path fill="#00832D" d="m12.3 9.5 3.4 5.9h4.7c.4 0 .7-.2.9-.5l2-3.5c.2-.3.2-.7 0-1L17.7 4c-.2-.3-.5-.5-.8-.5h-4.6l3.6 6.2-3.6-.2z"/>
  <path fill="#2684FC" d="M19.7 15.4h-4l-3.4 5.8h6.5c.4 0 .7-.2.8-.5l1.3-2.3c.2-.3.2-.7 0-1l-1.2-2z"/>
  <path fill="#FFBA00" d="m15.7 15.4-3.4-5.9L9 9.4l3.2 5.9 3.5.1z"/>
</svg>
