<svg xmlns="http://www.w3.org/2000/svg" viewBox="0 0 24 24" role="img" aria-label="Microsoft Teams">
  <path fill="#5059C9" d="M19.2 10.4c1.1 0 2 .9 2 2s-.9 2-2 2c-.4 0-.7-.1-1-.3v-3.4c.3-.2.6-.3 1-.3zM22 15.6v-3.2c0-.8-.5-1.6-1.3-1.9.4-.3.7-.7.8-1.1.2-.4.2-.9.1-1.3-.1-.5-.3-.9-.7-1.2-.3-.3-.8-.5-1.2-.6-.5-.1-.9 0-1.3.2v4.7c.3.4.5.8.5 1.3v3.2c0 .5-.1 1-.4 1.4h2.2c.7 0 1.3-.6 1.3-1.5z"/>
  <path fill="#7B83EB" d="M14 14c1.7 0 3-1.3 3-3s-1.3-3-3-3-3 1.3-3 3 1.3 3 3 3zm-5.3 2h10.6c.9 0 1.7.7 1.7 1.7v2.4c0 2.2-1.8 4-4 4H10.7c-2.2 0-4-1.8-4-4v-2.4c0-1 .7-1.7 1.7-1.7h.3z"/>
  <rect x="1" y="5" width="12" height="14" rx="1.2" fill="#4B53BC"/>
  <path fill="#FFFFFF" d="M10.7 9H3.3v1.6h2.7V16h1.8v-5.4h2.9V9z"/>
</svg>
