<svg xmlns="http://www.w3.org/2000/svg" viewBox="0 0 24 24" role="img" aria-label="PostgreSQL">
  <ellipse cx="12" cy="5" rx="8" ry="2.5" fill="#336791"/>
  <path d="M4 5v7c0 1.4 3.6 2.5 8 2.5s8-1.1 8-2.5V5" fill="none" stroke="#336791" stroke-width="2"/>
  <path d="M4 12v7c0 1.4 3.6 2.5 8 2.5s8-1.1 8-2.5v-7" fill="none" stroke="#336791" stroke-width="2"/>
  <path d="M4 12c0 1.4 3.6 2.5 8 2.5s8-1.1 8-2.5" fill="none" stroke="#336791" stroke-width="2"/>
  <ellipse cx="12" cy="5" rx="8" ry="2.5" fill="none" stroke="#1f3e59" stroke-width="1"/>
  <path d="M9.5 8.5c0 1.5 1 2.5 2.5 2.5s2.5-1 2.5-2.5" fill="none" stroke="#fff" stroke-width="0.8"/>
</svg>
