<svg xmlns="http://www.w3.org/2000/svg" viewBox="0 0 24 24" role="img" aria-label="Airtable">
  <path fill="#FCB400" d="M10.9 2.4 2.3 6c-.5.2-.5.9 0 1.1l8.7 3.4c.7.3 1.4.3 2.1 0l8.7-3.4c.5-.2.5-.9 0-1.1l-8.6-3.6a2.7 2.7 0 0 0-2.3 0z"/>
  <path fill="#18BFFF" d="M13.9 12.1v8.7c0 .4.4.8.8.6l9.7-3.8c.3-.1.5-.4.5-.7V8.2c0-.4-.4-.8-.8-.6l-9.7 3.8c-.3.1-.5.4-.5.7z"/>
  <path fill="#F82B60" d="M11.1 12.6l-2.9 1.4-.3.1-6.5-3.1c-.3-.2-.8.1-.8.5v7.6c0 .5.3.9.7 1.1l6.5 3.1c.5.2 1 .2 1.5 0l2-1c.5-.2.5-.9 0-1.1l-2.9-1.4v-6z"/>
  <path fill="#000000" opacity=".25" d="M10.4 20.3l8.2-4-1.3-.5-7.7 3.8.8.7z"/>
</svg>
