<svg xmlns="http://www.w3.org/2000/svg" viewBox="0 0 24 24" role="img" aria-label="GitHub">
  <path fill="#181717" fill-rule="evenodd" clip-rule="evenodd" d="M12 .3a12 12 0 0 0-3.8 23.38c.6.11.82-.26.82-.58v-2.03c-3.34.72-4.04-1.61-4.04-1.61-.54-1.38-1.33-1.75-1.33-1.75-1.09-.74.08-.73.08-.73 1.2.09 1.83 1.24 1.83 1.24 1.07 1.83 2.81 1.3 3.5.99.1-.77.41-1.3.76-1.6-2.67-.3-5.47-1.33-5.47-5.93 0-1.31.47-2.38 1.24-3.22-.14-.3-.54-1.52.11-3.18 0 0 1-.32 3.3 1.23a11.5 11.5 0 0 1 6 0c2.28-1.55 3.29-1.23 3.29-1.23.66 1.66.25 2.88.12 3.18.77.84 1.23 1.91 1.23 3.22 0 4.61-2.8 5.63-5.48 5.92.42.36.81 1.08.81 2.18v3.23c0 .32.22.7.83.58A12 12 0 0 0 12 .3"/>
</svg>
