<svg xmlns="http://www.w3.org/2000/svg" viewBox="0 0 24 24" role="img" aria-label="Google Calendar">
  <rect x="3.5" y="3.5" width="17" height="17" rx="1.5" fill="#FFFFFF" stroke="#DADCE0"/>
  <rect x="3.5" y="3.5" width="17" height="4" rx="1.5" fill="#4285F4"/>
  <rect x="6" y="2" width="1.5" height="4" rx=".5" fill="#1967D2"/>
  <rect x="16.5" y="2" width="1.5" height="4" rx=".5" fill="#1967D2"/>
  <path fill="#4285F4" d="M9.2 13.4c0-.7.3-1.3.8-1.7.5-.4 1.1-.6 1.9-.6.8 0 1.4.2 1.8.6.4.4.7.8.7 1.3 0 .6-.3 1.1-.9 1.4.8.3 1.1.9 1.1 1.6 0 .6-.2 1.1-.7 1.5-.5.4-1.1.6-1.9.6-.8 0-1.5-.2-2-.6-.5-.4-.8-1-.9-1.7l.9-.2c.1.5.3.8.6 1 .3.2.7.3 1.2.3.5 0 .9-.1 1.2-.4.3-.3.4-.6.4-1 0-.4-.1-.7-.4-1-.3-.3-.7-.4-1.2-.4h-.7v-.8h.5c.5 0 .9-.1 1.2-.3.3-.2.4-.5.4-.9 0-.3-.1-.6-.4-.8-.3-.2-.6-.3-1.1-.3-.4 0-.8.1-1.1.3-.3.2-.5.5-.5.9l-.9-.1z"/>
  <path fill="#EA4335" d="M17.1 11.6 15.6 13v5h.9v-6l1-1h-.4z" opacity=".7"/>
  <path fill="#4285F4" d="M16.5 12 15 13.5v4.5h.9v-5.5l1.1-1-.5.5z"/>
</svg>
