<svg xmlns="http://www.w3.org/2000/svg" viewBox="0 0 24 24" role="img" aria-label="HubSpot">
  <path fill="#FF7A59" d="M17.6 8.3V5.7a2 2 0 0 0 1.2-1.9 2 2 0 0 0-2-2 2 2 0 0 0-2 2c0 .8.5 1.5 1.2 1.8v2.6a5.7 5.7 0 0 0-2.7 1.1l-7.2-5.6c0-.1.1-.3.1-.5a2.2 2.2 0 1 0-2.2 2.2c.4 0 .8-.1 1.1-.3l7.1 5.5c-.9 1-1.4 2.3-1.4 3.7 0 1.6.6 3 1.6 4l-2.2 2.2c-.2-.1-.4-.1-.6-.1a1.9 1.9 0 1 0 1.9 1.9c0-.2 0-.4-.1-.6l2.2-2.2c1 .9 2.4 1.4 3.8 1.4a5.7 5.7 0 0 0 5.7-5.7c0-3-2.3-5.4-5.5-5.7zm-.8 8.6a2.9 2.9 0 1 1 0-5.8 2.9 2.9 0 0 1 0 5.8z"/>
</svg>
