<svg xmlns="http://www.w3.org/2000/svg" viewBox="0 0 24 24" role="img" aria-label="Salesforce">
  <path fill="#00A1E0" d="M9.4 5.6c.7-.7 1.7-1.2 2.8-1.2 1.5 0 2.8.8 3.5 2.1.6-.3 1.3-.4 2-.4 2.5 0 4.6 2.1 4.6 4.6 0 2.6-2.1 4.6-4.6 4.6-.3 0-.6 0-.9-.1-.6 1.1-1.8 1.9-3.2 1.9-.6 0-1.1-.1-1.6-.3-.6 1.4-2 2.4-3.6 2.4s-3-.9-3.7-2.3c-.3.1-.7.1-1 .1-2.2 0-4-1.8-4-4 0-1.5.8-2.8 2-3.5-.2-.6-.4-1.2-.4-1.8 0-2.5 2-4.5 4.5-4.5 1.5 0 2.8.7 3.6 1.9z"/>
  <path fill="#FFFFFF" d="M3.9 14.1c0-.1.1-.1.2-.1l.3.1c.4.2.7.3 1 .3.4 0 .7-.2.7-.5v-.1c0-.3-.4-.5-.8-.6h-.1c-.6-.2-1.2-.4-1.2-1.1v-.1c0-.6.5-1 1.3-1h.2c.4 0 .8.1 1.1.3.1 0 .1.1.1.2v.3s0 .1-.1.1h-.1c-.3-.2-.7-.3-1.1-.3s-.6.2-.6.4v.1c0 .3.4.5.8.6l.1.1c.6.2 1.2.4 1.2 1.1 0 .7-.5 1.1-1.4 1.1-.4 0-.9-.1-1.3-.3h-.1c-.1-.1-.2-.2-.2-.2v-.3zm6.6 0c0-.1.1-.1.2-.1l.3.1c.4.2.7.3 1 .3.4 0 .7-.2.7-.5v-.1c0-.3-.4-.5-.8-.6h-.1c-.6-.2-1.2-.4-1.2-1.1v-.1c0-.6.5-1 1.3-1h.2c.4 0 .8.1 1.1.3.1 0 .1.1.1.2v.3s0 .1-.1.1h-.1c-.3-.2-.7-.3-1.1-.3s-.6.2-.6.4v.1c0 .3.4.5.8.6l.1.1c.6.2 1.2.4 1.2 1.1 0 .7-.5 1.1-1.4 1.1-.4 0-.9-.1-1.3-.3h-.1c-.1-.1-.2-.2-.2-.2v-.3zm6.5-1.5c0-.3-.1-.6-.2-.8-.1-.2-.3-.3-.6-.3s-.5.1-.6.3c-.2.2-.2.5-.2.8s.1.6.2.8c.2.2.4.3.6.3.3 0 .5-.1.6-.3.2-.2.2-.5.2-.8zm.6-.7c.1.2.1.4.1.7 0 .3 0 .5-.1.7-.1.2-.2.4-.4.6-.1.2-.3.3-.5.4-.2.1-.5.1-.7.1-.3 0-.5 0-.7-.1-.2-.1-.4-.2-.5-.4-.1-.2-.3-.4-.4-.6-.1-.2-.1-.4-.1-.7 0-.3 0-.5.1-.7.1-.2.2-.4.4-.6.1-.2.3-.3.5-.4.2-.1.5-.1.7-.1.3 0 .5 0 .7.1.2.1.4.2.5.4.2.2.3.4.4.6zm4-.9h-.1l-.1-.1c-.1 0-.3-.1-.5-.1s-.4 0-.5.1c-.2.1-.3.1-.4.3-.1.1-.2.3-.3.5 0 .2-.1.4-.1.6s0 .4.1.6c0 .2.1.3.3.5.1.1.2.2.4.3.1.1.3.1.5.1s.4 0 .5-.1c.1 0 .2-.1.3-.2h.1v-.6l-.1-.1h-.1l-.2.1c-.1 0-.2 0-.3 0-.3 0-.5-.1-.6-.2-.1-.2-.2-.4-.2-.7 0-.2 0-.4.1-.6.1-.1.3-.2.5-.2.2 0 .3 0 .4.1l.1.1h.2v-.4z"/>
</svg>
