<svg xmlns="http://www.w3.org/2000/svg" viewBox="0 0 1914 591" role="img" aria-labelledby="title desc">
  <title id="title">L2M Studio SDLC Workflow Preview</title>
  <desc id="desc">Editor screenshot style illustration with sidebar, topbar tabs, and node graph from Prompt to Output.</desc>
  <defs>
    <pattern id="dotGrid" width="20" height="20" patternUnits="userSpaceOnUse">
      <circle cx="1.5" cy="1.5" r="1.1" fill="#d8e0ee"/>
    </pattern>
  </defs>

  <rect width="1914" height="591" fill="#f4f7fc"/>
  <rect x="0" y="0" width="1914" height="92" fill="#f8fbff" stroke="#d7dfed"/>
  <rect x="0" y="92" width="94" height="499" fill="#f8fbff" stroke="#d7dfed"/>

  <g fill="#ffffff" stroke="#c9d4e6">
    <rect x="12" y="14" rx="12" ry="12" width="70" height="40"/>
    <rect x="12" y="69" rx="12" ry="12" width="70" height="40"/>
    <rect x="12" y="124" rx="12" ry="12" width="70" height="40"/>
    <rect x="12" y="179" rx="12" ry="12" width="70" height="40"/>
    <rect x="12" y="234" rx="12" ry="12" width="70" height="40"/>
    <rect x="12" y="289" rx="12" ry="12" width="70" height="40"/>
    <rect x="12" y="344" rx="12" ry="12" width="70" height="40"/>
  </g>
  <g font-family="Outfit, Segoe UI, Arial, sans-serif" font-size="30" fill="#2e3e58">
    <text x="28" y="41">Home</text>
    <text x="28" y="96">Editor</text>
    <text x="31" y="151">Vars</text>
    <text x="30" y="206">Runs</text>
    <text x="31" y="261">Chat</text>
    <text x="32" y="316">Eval</text>
    <text x="23" y="371">Secrets</text>
  </g>

  <rect x="95" y="92" width="1819" height="499" fill="url(#dotGrid)"/>

  <g>
    <rect x="118" y="24" width="430" height="44" rx="12" fill="#ffffff" stroke="#cfd8e8"/>
    <rect x="126" y="27" width="32" height="32" rx="9" fill="#f4f8fd" stroke="#c7d3e6"/>
    <g fill="none" stroke="#18c8b2" stroke-width="2.6" stroke-linecap="round" stroke-linejoin="round">
      <path d="M132 41 L140 33"/>
      <path d="M132 49 L146 35"/>
      <path d="M132 56 L148 40"/>
      <path d="M142 58 L152 48"/>
    </g>
    <text x="172" y="49" font-family="Outfit, Segoe UI, Arial, sans-serif" font-size="33" fill="#1f314e">L<tspan dy="-10" font-size="22">2</tspan><tspan dy="10">M</tspan></text>
    <text x="172" y="66" font-family="Outfit, Segoe UI, Arial, sans-serif" font-size="16" letter-spacing="2.2" fill="#6880a1">STUDIO</text>
    <text x="264" y="50" font-family="Outfit, Segoe UI, Arial, sans-serif" font-size="36" fill="#0f223f">SDLC</text>
  </g>

  <g>
    <rect x="520" y="26" width="260" height="40" rx="11" fill="#ffffff" stroke="#cfd8e8"/>
    <text x="538" y="52" font-family="Outfit, Segoe UI, Arial, sans-serif" font-size="32" fill="#3f5678">SDLC</text>
    <path d="M748 42 l11 11 11-11" fill="none" stroke="#5f7493" stroke-width="3.5" stroke-linecap="round"/>
  </g>

  <g>
    <rect x="950" y="24" width="590" height="44" rx="12" fill="#eef3fb" stroke="#cfd8e8"/>
    <rect x="1068" y="27" width="78" height="38" rx="10" fill="#ffffff"/>
    <g font-family="Outfit, Segoe UI, Arial, sans-serif" font-size="31" fill="#2c3f60">
      <text x="968" y="52">Dashboard</text>
      <text x="1082" y="52">Editor</text>
      <text x="1160" y="52">Variables</text>
      <text x="1284" y="52">Runs</text>
      <text x="1360" y="52">Chat</text>
      <text x="1425" y="52">Eval</text>
      <text x="1490" y="52">Secrets</text>
    </g>
  </g>

  <g fill="#ffffff" stroke="#c9d4e6">
    <rect x="1560" y="26" width="60" height="40" rx="12"/>
    <rect x="1630" y="26" width="90" height="40" rx="12"/>
    <rect x="1730" y="26" width="90" height="40" rx="12"/>
    <rect x="1830" y="24" width="74" height="44" rx="18"/>
  </g>
  <g font-family="Outfit, Segoe UI, Arial, sans-serif" font-size="31" fill="#243754">
    <text x="1576" y="52">Save</text>
    <text x="1650" y="52">Export</text>
    <text x="1752" y="52">Import</text>
    <text x="1840" y="52">admin</text>
  </g>
  <path d="M1888 39 l6 6 6-6" fill="none" stroke="#4f6588" stroke-width="3"/>

  <g fill="#ffffff" stroke="#cfd8e8">
    <rect x="1887" y="111" width="43" height="43" rx="13"/>
  </g>
  <text x="1902" y="141" font-family="Outfit, Segoe UI, Arial, sans-serif" font-size="36" fill="#1f324f">+</text>

  <g>
    <rect x="355" y="157" width="200" height="74" rx="12" fill="#ffffff" stroke="#d1daea"/>
    <circle cx="381" cy="194" r="13" fill="#eef2f8" stroke="#bcc8dd"/>
    <path d="M380 188 l4 6 -4 6" fill="none" stroke="#5f7495" stroke-width="2.4" stroke-linecap="round" stroke-linejoin="round"/>
    <text x="408" y="193" font-family="Outfit, Segoe UI, Arial, sans-serif" font-size="31" fill="#132947">Prompt</text>
    <text x="408" y="211" font-family="Outfit, Segoe UI, Arial, sans-serif" font-size="24" fill="#7b8ea8">Text Input</text>
  </g>

  <g>
    <rect x="708" y="185" width="234" height="86" rx="12" fill="#ffffff" stroke="#d1daea"/>
    <circle cx="735" cy="221" r="14" fill="#eef2f8" stroke="#bcc8dd"/>
    <path d="M730 221 h10 M735 216 v10" fill="none" stroke="#5f7495" stroke-width="2.2"/>
    <text x="760" y="224" font-family="Outfit, Segoe UI, Arial, sans-serif" font-size="31" fill="#132947">DeveloperAgent</text>
    <text x="760" y="241" font-family="Outfit, Segoe UI, Arial, sans-serif" font-size="24" fill="#7b8ea8">AI Agent</text>
    <text x="718" y="289" font-family="Outfit, Segoe UI, Arial, sans-serif" font-size="22" fill="#7a8faa">Chat Model*</text>
    <text x="804" y="289" font-family="Outfit, Segoe UI, Arial, sans-serif" font-size="22" fill="#7a8faa">Memory</text>
    <text x="874" y="289" font-family="Outfit, Segoe UI, Arial, sans-serif" font-size="22" fill="#7a8faa">Tool</text>
  </g>

  <g>
    <rect x="1083" y="185" width="234" height="86" rx="12" fill="#ffffff" stroke="#d1daea"/>
    <circle cx="1110" cy="221" r="14" fill="#eef2f8" stroke="#bcc8dd"/>
    <path d="M1105 221 h10 M1110 216 v10" fill="none" stroke="#5f7495" stroke-width="2.2"/>
    <text x="1134" y="224" font-family="Outfit, Segoe UI, Arial, sans-serif" font-size="31" fill="#132947">QAAgent</text>
    <text x="1134" y="241" font-family="Outfit, Segoe UI, Arial, sans-serif" font-size="24" fill="#7b8ea8">AI Agent</text>
    <text x="1092" y="289" font-family="Outfit, Segoe UI, Arial, sans-serif" font-size="22" fill="#7a8faa">Chat Model*</text>
    <text x="1178" y="289" font-family="Outfit, Segoe UI, Arial, sans-serif" font-size="22" fill="#7a8faa">Memory</text>
    <text x="1248" y="289" font-family="Outfit, Segoe UI, Arial, sans-serif" font-size="22" fill="#7a8faa">Tool</text>
  </g>

  <g>
    <rect x="1482" y="276" width="156" height="74" rx="12" fill="#ffffff" stroke="#d1daea"/>
    <circle cx="1511" cy="313" r="15" fill="#eef2f8" stroke="#bcc8dd"/>
    <path d="M1506 313 h10 M1511 308 v10" fill="none" stroke="#5f7495" stroke-width="2.2"/>
    <text x="1537" y="312" font-family="Outfit, Segoe UI, Arial, sans-serif" font-size="31" fill="#132947">Output</text>
    <text x="1537" y="329" font-family="Outfit, Segoe UI, Arial, sans-serif" font-size="24" fill="#7b8ea8">Output</text>
  </g>

  <g fill="#ffffff" stroke="#ced8e8">
    <circle cx="574" cy="431" r="34"/>
    <circle cx="1093" cy="431" r="34"/>
  </g>
  <g font-family="Outfit, Segoe UI, Arial, sans-serif" font-size="31" fill="#1f334f">
    <text x="508" y="497">Ollama_Qwen_Coder</text>
    <text x="1024" y="487">Ollama_Qwen_Tester</text>
  </g>

  <g stroke="#586b89" stroke-width="3.2" fill="none" stroke-linecap="round" stroke-linejoin="round">
    <path d="M555 194 C620 194 640 230 708 230"/>
    <path d="M942 229 H1083"/>
    <path d="M1317 229 C1380 232 1407 312 1482 313"/>
    <path d="M731 309 C731 346 603 355 574 397" stroke-dasharray="9 8" opacity="0.55"/>
    <path d="M1105 309 C1101 344 1095 363 1093 397" stroke-dasharray="9 8" opacity="0.55"/>
  </g>

  <g fill="#1f324f">
    <circle cx="355" cy="194" r="2.7"/>
    <circle cx="555" cy="194" r="2.7"/>
    <circle cx="708" cy="230" r="2.7"/>
    <circle cx="942" cy="229" r="2.7"/>
    <circle cx="1083" cy="229" r="2.7"/>
    <circle cx="1317" cy="229" r="2.7"/>
    <circle cx="1482" cy="313" r="2.7"/>
    <circle cx="1638" cy="313" r="2.7"/>
  </g>

  <g fill="#ffffff" stroke="#c8d3e5">
    <rect x="103" y="544" width="46" height="42" rx="11"/>
    <rect x="159" y="544" width="36" height="42" rx="11"/>
    <rect x="205" y="544" width="42" height="42" rx="11"/>
    <rect x="257" y="544" width="68" height="42" rx="11"/>
  </g>
  <g font-family="Outfit, Segoe UI, Arial, sans-serif" font-size="34" fill="#324765">
    <text x="125" y="573">Fit</text>
    <text x="176" y="573">+</text>
    <text x="223" y="573">-</text>
    <text x="272" y="573">Clear</text>
  </g>

  <g fill="#ffffff" stroke="#cad5e8">
    <rect x="829" y="536" width="190" height="52" rx="15" fill="#ff7f66" stroke="#ff7f66"/>
    <rect x="1029" y="536" width="148" height="52" rx="15"/>
  </g>
  <g font-family="Outfit, Segoe UI, Arial, sans-serif" font-size="35" font-weight="600">
    <text x="857" y="571" fill="#ffffff">Execute workflow</text>
    <text x="1047" y="571" fill="#314862">Webhook run</text>
  </g>
</svg>
